<?xml version="1.0" standalone="no"?>
<!DOCTYPE svg PUBLIC "-//W3C//DTD SVG 20010904//EN"
 "http://www.w3.org/TR/2001/REC-SVG-20010904/DTD/svg10.dtd">
<svg version="1.0" xmlns="http://www.w3.org/2000/svg"
 width="632.000000pt" height="359.000000pt" viewBox="0 0 632.000000 359.000000"
 preserveAspectRatio="xMidYMid meet">

<g transform="translate(0.000000,359.000000) scale(0.100000,-0.100000)"
fill="#000000" stroke="none">
<path d="M0 1795 l0 -1795 3160 0 3160 0 0 1795 0 1795 -3160 0 -3160 0 0
-1795z m3443 1426 c124 -36 223 -96 323 -196 78 -78 99 -106 138 -186 60 -125
79 -200 80 -329 1 -122 -20 -221 -69 -321 -92 -190 -189 -266 -332 -257 -155
9 -268 119 -281 273 -4 56 -1 71 25 127 51 109 138 158 278 158 43 0 75 -4 75
-10 0 -5 -9 -33 -19 -60 -30 -79 -81 -134 -159 -170 -37 -18 -74 -35 -82 -40
-8 -4 -15 -20 -15 -36 0 -25 4 -29 31 -32 50 -5 135 34 197 89 78 70 126 167
134 272 l6 77 -121 0 c-146 0 -226 -21 -300 -79 l-50 -40 -6 59 c-14 125 -108
246 -224 291 -77 29 -318 41 -328 16 -10 -28 16 -160 43 -216 56 -116 193
-213 303 -215 50 -1 55 1 58 22 5 31 -12 49 -52 56 -68 13 -153 65 -191 115
-39 54 -65 110 -65 141 0 18 6 20 63 20 130 0 227 -52 278 -149 l29 -54 0
-212 0 -212 -31 -62 c-71 -141 -244 -200 -385 -129 -104 51 -220 219 -265 384
-28 101 -30 268 -5 364 90 346 412 583 767 564 47 -2 115 -13 152 -23z m-2807
-2242 c41 -25 63 -59 39 -59 -9 0 -26 11 -38 25 -26 29 -88 44 -135 34 -46 -9
-100 -64 -113 -114 -22 -79 16 -168 86 -202 56 -28 148 -21 188 15 9 8 20 12
25 8 13 -14 -37 -44 -94 -57 -97 -22 -201 18 -240 93 -24 47 -16 163 14 206
36 50 85 71 166 72 53 0 76 -5 102 -21z m528 7 c70 -29 87 -97 37 -147 -16
-16 -37 -29 -46 -29 -20 0 -21 1 35 -82 25 -37 58 -73 75 -81 27 -13 28 -16
11 -22 -36 -15 -69 9 -121 85 -43 64 -55 75 -83 78 l-32 3 0 -80 c0 -80 0 -81
-25 -81 l-25 0 0 185 0 185 70 0 c39 0 86 -6 104 -14z m704 -19 c53 -34 82
-91 82 -157 0 -61 -17 -96 -64 -138 -90 -79 -232 -62 -301 36 -26 38 -30 53
-30 107 0 55 5 70 30 106 45 63 85 81 171 77 57 -3 79 -9 112 -31z m577 17
c48 -22 71 -75 56 -125 -17 -58 -51 -79 -127 -79 l-64 0 0 -75 c0 -73 -1 -75
-25 -75 l-25 0 0 185 0 185 76 0 c48 0 88 -6 109 -16z m546 -13 c16 -16 29
-34 29 -40 0 -21 -24 -11 -50 20 -21 26 -33 31 -67 31 -23 0 -51 -6 -62 -12
-26 -14 -37 -55 -20 -76 15 -18 73 -49 111 -58 15 -3 43 -20 63 -37 30 -27 35
-37 35 -74 0 -36 -5 -48 -30 -69 -69 -58 -196 -41 -228 30 -15 32 -15 34 2 34
8 0 21 -12 28 -27 38 -79 188 -65 188 18 0 39 -26 63 -99 89 -78 29 -111 61
-111 109 1 64 37 90 123 91 52 0 62 -4 88 -29z m557 8 c37 -23 55 -72 42 -117
-15 -59 -40 -76 -121 -80 l-69 -4 0 -74 c0 -72 -1 -74 -25 -74 l-25 0 0 186 0
186 88 -4 c51 -2 96 -10 110 -19z m394 -61 c3 -78 4 -82 26 -81 12 0 63 1 112
2 l90 1 0 80 c0 73 2 80 20 80 19 0 20 -7 20 -185 0 -177 -1 -185 -20 -185
-17 0 -19 8 -22 88 l-3 87 -112 3 -113 3 0 -91 c0 -89 0 -90 -25 -90 l-25 0 0
185 0 185 25 0 c23 0 24 -2 27 -82z m851 67 c1 -6 -37 -11 -95 -13 l-98 -3 0
-64 0 -65 63 0 c69 0 107 -8 107 -21 0 -5 -38 -9 -85 -9 l-85 0 0 -75 0 -75
63 -1 c56 -1 108 -4 130 -8 5 0 5 -5 2 -11 -4 -6 -55 -10 -121 -10 l-114 0 0
185 0 186 115 -3 c66 -2 116 -7 118 -13z m482 0 c34 -17 55 -50 55 -90 0 -29
-44 -83 -71 -87 -18 -3 -15 -10 28 -73 26 -38 61 -76 77 -83 34 -17 21 -38
-19 -28 -28 7 -51 30 -105 108 -29 43 -42 54 -68 56 l-32 3 0 -80 c0 -80 0
-81 -25 -81 l-25 0 0 185 0 185 76 0 c48 0 88 -6 109 -15z m655 0 c0 -11 -20
-15 -97 -17 l-98 -3 -3 -62 c-2 -46 1 -63 10 -64 7 0 46 0 86 0 56 0 72 -3 72
-15 0 -11 -18 -14 -86 -14 l-85 0 3 -77 3 -76 94 -1 c66 -1 96 -5 98 -13 4
-10 -24 -13 -116 -13 l-121 0 0 185 0 185 120 0 c99 0 120 -3 120 -15z"/>
<path d="M1040 894 l0 -87 47 6 c71 8 110 62 87 122 -9 23 -57 45 -99 45 l-35
0 0 -86z"/>
<path d="M1707 975 c-51 -18 -73 -39 -93 -91 -48 -125 41 -258 158 -239 131
23 178 208 76 301 -21 19 -37 27 -88 39 -8 2 -32 -2 -53 -10z"/>
<path d="M2310 890 l0 -90 50 0 c80 0 119 57 86 126 -17 38 -49 54 -102 54
l-34 0 0 -90z"/>
<path d="M3400 890 l0 -90 46 0 c58 0 79 12 93 52 24 69 -25 128 -109 128
l-30 0 0 -90z"/>
<path d="M5140 896 l0 -86 39 0 c54 0 101 39 101 85 0 51 -27 77 -88 83 l-52
5 0 -87z"/>
</g>
</svg>
